<?xml version="1.0" standalone="no"?>
<!DOCTYPE svg PUBLIC "-//W3C//DTD SVG 20010904//EN"
 "http://www.w3.org/TR/2001/REC-SVG-20010904/DTD/svg10.dtd">
<svg version="1.0" xmlns="http://www.w3.org/2000/svg"
 width="1022.000000pt" height="117.000000pt" viewBox="0 0 1022.000000 117.000000"
 preserveAspectRatio="xMidYMid meet">

<g transform="translate(0.000000,117.000000) scale(0.100000,-0.100000)"
fill="#000000" stroke="none">
<path d="M305 1053 c24 -159 91 -244 340 -433 161 -122 235 -203 278 -305 20
-47 37 -132 37 -186 0 -48 13 -49 68 -9 70 50 72 60 72 314 l0 225 -52 19
c-29 11 -64 23 -78 27 -81 25 -165 90 -208 164 -15 25 -40 86 -57 136 l-30 90
-189 3 -188 2 7 -47z"/>
<path d="M775 1060 c22 -63 70 -125 123 -159 50 -32 170 -68 195 -58 11 4 15
33 16 131 l2 126 -175 0 -175 0 14 -40z"/>
<path d="M172 1063 c-75 -49 -82 -76 -82 -320 l0 -211 52 -17 c182 -59 295
-169 353 -346 l27 -79 189 0 c148 0 189 3 189 13 0 7 -7 40 -16 72 -31 120
-86 186 -297 357 -173 139 -227 192 -272 263 -42 67 -64 135 -72 223 -4 44
-10 72 -17 72 -7 0 -31 -12 -54 -27z"/>
<path d="M1510 1016 c-141 -31 -191 -98 -191 -256 0 -95 16 -144 63 -187 51
-47 91 -55 308 -63 113 -4 212 -10 221 -14 23 -10 39 -50 39 -95 0 -83 -29
-91 -346 -91 l-254 0 0 -81 0 -81 293 4 c240 4 301 7 344 21 110 36 156 108
156 242 1 127 -48 209 -141 235 -20 5 -119 10 -220 10 -238 0 -272 13 -272
105 0 97 27 105 340 105 l250 0 0 80 0 80 -267 -1 c-171 0 -288 -5 -323 -13z"/>
<path d="M2250 590 l0 -440 95 0 95 0 0 440 0 440 -95 0 -95 0 0 -440z"/>
<path d="M2573 703 c2 -228 7 -340 16 -367 15 -46 82 -121 131 -146 50 -25
167 -40 321 -40 l129 0 0 74 0 74 -164 3 c-255 6 -247 -6 -254 427 l-4 302
-90 0 -89 0 4 -327z"/>
<path d="M3847 1014 c-76 -18 -111 -37 -141 -76 -32 -44 -46 -98 -46 -183 1
-119 28 -168 115 -213 47 -24 62 -25 255 -32 127 -4 213 -11 227 -18 25 -14
36 -41 36 -93 0 -83 -22 -89 -343 -89 l-260 0 0 -80 0 -80 257 0 c142 0 286 5
322 11 81 14 149 49 178 92 60 88 55 260 -10 334 -58 65 -87 73 -305 73 -213
0 -254 8 -272 55 -22 57 -5 114 39 136 19 10 95 15 286 19 l260 5 3 78 3 77
-273 -1 c-197 0 -289 -5 -331 -15z"/>
<path d="M4590 590 l0 -441 98 3 97 3 0 435 0 435 -97 3 -98 3 0 -441z"/>
<path d="M5080 1016 c-139 -31 -193 -101 -194 -251 0 -96 14 -141 57 -183 59
-57 91 -65 321 -72 l208 -6 24 -27 c17 -20 24 -40 24 -70 0 -53 -7 -62 -53
-82 -29 -12 -84 -15 -292 -15 l-255 0 0 -81 0 -81 293 4 c333 5 374 12 438 77
43 42 60 96 61 185 0 79 -16 137 -49 177 -48 57 -76 63 -310 69 -195 5 -214 7
-240 26 -47 35 -45 129 4 161 24 16 61 19 288 23 l260 5 3 78 3 77 -268 -1
c-171 0 -288 -5 -323 -13z"/>
<path d="M5732 953 l3 -78 138 -3 137 -3 0 -359 0 -360 95 0 95 0 0 360 0 360
140 0 140 0 0 80 0 80 -375 0 -376 0 3 -77z"/>
<path d="M6770 1016 c-83 -19 -125 -40 -172 -88 -69 -68 -102 -156 -114 -298
-12 -141 26 -283 96 -363 80 -91 173 -116 448 -116 l172 -1 0 80 0 80 -199 0
c-189 0 -200 1 -231 23 -40 27 -68 77 -76 140 l-7 47 257 0 256 0 0 75 0 75
-255 0 -256 0 7 38 c9 55 44 113 83 139 32 22 42 23 227 23 l194 0 0 80 0 80
-187 -1 c-110 -1 -211 -6 -243 -13z"/>
<path d="M7330 590 l0 -440 95 0 96 0 -5 98 c-3 53 -8 207 -10 342 l-5 245 57
-170 c32 -93 84 -248 116 -343 l58 -173 96 3 97 3 112 335 112 335 -5 -255
c-2 -140 -7 -292 -10 -338 l-5 -83 93 3 93 3 0 435 0 435 -135 0 -135 0 -109
-328 c-60 -180 -113 -324 -117 -320 -4 5 -54 152 -112 328 l-105 320 -136 3
-136 3 0 -441z"/>
<path d="M8701 1008 c-7 -19 -182 -434 -317 -753 -19 -44 -34 -85 -34 -92 0
-10 24 -13 93 -13 l93 0 38 105 39 105 192 0 192 0 39 -105 38 -105 103 0 103
0 -13 33 c-8 17 -92 215 -187 440 l-173 407 -99 0 c-93 0 -99 -1 -107 -22z
m155 -290 c25 -68 53 -138 60 -157 8 -18 14 -35 14 -37 0 -2 -57 -4 -126 -4
-95 0 -125 3 -122 13 10 41 114 307 120 307 3 0 28 -55 54 -122z"/>
<path d="M9440 1012 c-128 -33 -180 -104 -180 -243 0 -124 29 -183 113 -226
50 -25 61 -27 257 -33 130 -4 213 -11 227 -18 29 -16 49 -80 36 -118 -19 -58
-48 -64 -340 -64 l-263 0 0 -80 0 -80 263 0 c289 1 366 10 439 53 69 40 93 96
93 212 0 122 -26 177 -104 217 -53 28 -55 28 -246 28 -107 0 -205 4 -218 9
-83 32 -91 140 -14 183 15 9 100 14 282 18 l260 5 3 78 3 77 -273 -1 c-223 0
-285 -3 -338 -17z"/>
<path d="M90 230 l0 -140 175 0 c134 0 175 3 175 13 0 15 -38 86 -65 119 -51
63 -159 124 -252 141 l-33 7 0 -140z"/>
</g>
</svg>
