<?xml version="1.0" standalone="no"?>
<!DOCTYPE svg PUBLIC "-//W3C//DTD SVG 20010904//EN"
 "http://www.w3.org/TR/2001/REC-SVG-20010904/DTD/svg10.dtd">
<svg version="1.0" xmlns="http://www.w3.org/2000/svg"
 width="3508.000000pt" height="2481.000000pt" viewBox="0 0 3508.000000 2481.000000"
 preserveAspectRatio="xMidYMid meet">

<g transform="translate(0.000000,2481.000000) scale(0.100000,-0.100000)"
fill="#000000" stroke="none">
<path d="M4424 13708 c8 -99 27 -184 63 -287 109 -306 266 -483 781 -875 357
-272 370 -282 511 -420 226 -219 361 -456 417 -731 8 -38 17 -139 21 -223 7
-177 -5 -167 128 -102 103 50 186 129 229 219 l31 66 2 605 c2 333 -1 611 -6
618 -4 7 -93 42 -197 77 -315 107 -452 184 -595 331 -135 139 -208 281 -289
554 -28 96 -55 186 -59 200 -15 49 -22 50 -550 50 l-494 0 7 -82z"/>
<path d="M5680 13787 c0 -2 13 -43 30 -91 100 -297 309 -488 626 -572 80 -21
265 -56 270 -50 1 0 5 162 9 359 l7 357 -471 0 c-259 0 -471 -1 -471 -3z"/>
<path d="M4121 13727 c-174 -97 -260 -213 -279 -377 -5 -41 -6 -309 -4 -595
l4 -521 117 -37 c387 -125 677 -339 847 -624 49 -83 109 -226 164 -394 22 -70
49 -134 59 -143 16 -14 72 -16 520 -16 l503 0 -7 78 c-11 115 -49 256 -99 357
-110 228 -286 414 -701 744 -482 382 -607 497 -746 684 -162 217 -248 492
-249 795 0 90 -2 102 -17 102 -10 0 -60 -24 -112 -53z"/>
<path d="M8200 13590 c-414 -6 -452 -10 -593 -59 -157 -55 -279 -153 -335
-272 -104 -219 -100 -603 8 -794 65 -113 197 -202 370 -250 93 -26 105 -27
585 -39 453 -12 495 -15 556 -34 113 -37 151 -105 151 -268 -1 -120 -39 -172
-157 -216 -60 -23 -61 -23 -777 -26 l-718 -3 0 -214 0 -215 709 0 c728 0 849
5 987 40 142 37 281 112 344 187 45 55 95 166 116 258 26 112 26 359 1 468
-51 215 -181 350 -394 409 -74 20 -107 22 -593 28 -510 5 -516 6 -574 29 -124
49 -173 130 -163 266 9 120 47 184 139 231 103 53 121 54 833 54 l660 0 -3
215 -3 215 -377 -2 c-207 -1 -555 -5 -772 -8z"/>
<path d="M9760 12400 l0 -1200 265 0 265 0 -2 1198 -3 1197 -262 3 -263 2 0
-1200z"/>
<path d="M10633 12773 c4 -783 5 -834 24 -933 25 -128 51 -199 104 -280 85
-131 213 -241 342 -291 135 -52 236 -61 730 -66 l447 -5 -2 198 -3 199 -380 1
c-424 0 -465 5 -579 67 -77 42 -116 103 -145 226 -35 149 -41 301 -41 1019 l0
692 -251 0 -250 0 4 -827z"/>
<path d="M14620 13590 c-420 -7 -458 -10 -601 -63 -284 -103 -399 -292 -400
-662 -1 -169 18 -270 68 -373 66 -134 198 -228 392 -279 93 -25 111 -26 541
-35 245 -4 478 -14 519 -20 165 -25 222 -96 223 -273 0 -79 -22 -145 -60 -179
-11 -10 -51 -30 -89 -45 l-68 -26 -717 -3 -718 -3 0 -214 0 -215 713 0 c402 0
753 5 807 10 182 19 347 77 456 158 138 104 214 332 201 606 -17 368 -179 560
-510 605 -46 7 -260 11 -517 11 -454 0 -507 4 -585 42 -100 50 -142 129 -132
253 9 120 47 184 139 231 103 53 121 54 831 54 l657 0 0 215 0 215 -377 -2
c-208 -1 -556 -5 -773 -8z"/>
<path d="M16180 12400 l0 -1200 265 0 265 0 -2 1198 -3 1197 -262 3 -263 2 0
-1200z"/>
<path d="M17980 13590 c-420 -7 -458 -10 -601 -63 -284 -103 -399 -292 -400
-662 -1 -169 18 -270 68 -373 66 -134 198 -228 392 -279 93 -25 111 -26 541
-35 245 -4 478 -14 519 -20 165 -25 222 -96 223 -273 0 -79 -22 -145 -60 -179
-11 -10 -51 -30 -89 -45 l-68 -26 -717 -3 -718 -3 0 -214 0 -215 713 0 c402 0
753 5 807 10 182 19 347 77 456 158 138 104 214 332 201 606 -17 368 -179 560
-510 605 -46 7 -260 11 -517 11 -454 0 -507 4 -585 42 -100 50 -142 129 -132
253 9 120 47 184 139 231 103 53 121 54 831 54 l657 0 0 215 0 215 -377 -2
c-208 -1 -556 -5 -773 -8z"/>
<path d="M22535 13589 c-284 -6 -319 -8 -416 -32 -444 -107 -674 -392 -744
-924 -19 -147 -19 -409 0 -538 46 -304 156 -525 335 -674 128 -106 257 -164
441 -197 78 -14 184 -18 632 -21 l537 -5 0 210 0 211 -487 -2 c-373 -2 -503 1
-553 11 -208 43 -338 231 -352 507 l-3 70 698 3 697 2 0 205 0 205 -695 0
-695 0 0 23 c0 13 5 50 10 83 33 190 132 334 277 401 103 48 169 53 654 53
l449 0 0 210 0 210 -237 -2 c-131 -1 -377 -5 -548 -9z"/>
<path d="M23680 12400 l0 -1200 255 0 c241 0 255 1 255 18 0 50 -40 1521 -45
1677 -4 99 -4 177 -1 174 6 -6 602 -1769 618 -1831 l10 -38 270 0 c206 0 270
3 273 13 362 1103 513 1561 550 1677 26 80 50 148 54 153 4 4 6 -46 4 -110 -8
-279 -33 -1518 -33 -1621 l0 -112 245 0 245 0 0 1200 0 1200 -369 0 -370 0
-302 -915 c-167 -503 -306 -915 -309 -915 -3 0 -142 412 -309 915 l-303 915
-369 0 -369 0 0 -1200z"/>
<path d="M27460 13580 c-6 -11 -103 -238 -214 -503 -195 -461 -295 -698 -628
-1487 -83 -195 -153 -363 -155 -372 -5 -17 12 -18 258 -18 l264 0 105 283 105
282 524 0 524 0 108 -280 107 -280 281 -3 281 -2 -9 22 c-5 13 -133 313 -284
668 -151 355 -372 872 -490 1150 -118 278 -221 517 -228 533 l-12 27 -263 0
c-254 0 -264 -1 -274 -20z m440 -933 c95 -241 171 -440 168 -442 -3 -3 -162
-4 -355 -3 l-349 3 166 435 c91 239 169 444 173 455 7 17 10 17 16 5 5 -8 86
-212 181 -453z"/>
<path d="M29965 13590 c-391 -6 -402 -7 -500 -33 -356 -94 -495 -288 -496
-692 -1 -234 40 -369 147 -484 66 -72 172 -130 305 -167 92 -26 103 -26 544
-35 248 -5 483 -15 524 -21 166 -26 223 -96 223 -278 0 -125 -33 -174 -149
-219 l-68 -26 -717 -3 -718 -3 0 -214 0 -215 709 0 c417 0 750 4 810 10 140
15 240 42 351 96 157 78 231 173 281 359 30 110 33 372 6 488 -51 215 -181
350 -394 409 -73 20 -108 22 -593 28 -523 6 -537 8 -615 48 -108 55 -149 173
-112 319 20 74 53 118 118 153 111 59 120 60 842 60 l657 0 0 215 0 215 -377
-2 c-208 -1 -558 -5 -778 -8z"/>
<path d="M19290 13385 l0 -205 385 0 385 0 0 -990 0 -990 260 0 260 0 0 990 0
990 390 0 390 0 0 205 0 205 -1035 0 -1035 0 0 -205z"/>
<path d="M3834 11403 l-1 -380 452 -7 c310 -4 461 -3 480 4 26 10 27 13 22 55
-8 54 -41 121 -115 234 -103 157 -218 254 -417 351 -136 66 -263 108 -356 116
l-64 6 -1 -379z"/>
</g>
</svg>
